<?plantuml 1.2026.2beta3?><svg xmlns="http://www.w3.org/2000/svg" xmlns:xlink="http://www.w3.org/1999/xlink" contentStyleType="text/css" data-diagram-type="CLASS" height="337px" preserveAspectRatio="none" style="width:1179px;height:337px;background:#FFFFFF;" version="1.1" viewBox="0 0 1179 337" width="1179px" zoomAndPan="magnify"><defs/><g><!--class Users--><g class="entity" data-qualified-name="Users" data-source-line="5" id="ent0002"><rect fill="#F1F1F1" height="123.7813" rx="2.5" ry="2.5" style="stroke:#181818;stroke-width:0.5;" width="207.3301" x="296.57" y="7"/><text fill="#000000" font-family="sans-serif" font-size="14" lengthAdjust="spacing" textLength="39.2041" x="380.633" y="24.9951">Users</text><line style="stroke:#181818;stroke-width:0.5;" x1="297.57" x2="502.9001" y1="33.2969" y2="33.2969"/><g data-visibility-modifier="IE_MANDATORY"><ellipse cx="307.57" cy="46.9453" fill="#000000" rx="3" ry="3" style="stroke:#000000;stroke-width:1;"/></g><text fill="#000000" font-family="sans-serif" font-size="14" lengthAdjust="spacing" textLength="84.0889" x="316.57" y="50.292">Id : int &#171;PK&#187;</text><line style="stroke:#181818;stroke-width:1;" x1="297.57" x2="502.9001" y1="57.5938" y2="57.5938"/><text fill="#000000" font-family="sans-serif" font-size="14" lengthAdjust="spacing" textLength="127.0186" x="302.57" y="74.5889">UserName : string</text><text fill="#000000" font-family="sans-serif" font-size="14" lengthAdjust="spacing" textLength="92.6475" x="302.57" y="90.8857">Email : string</text><text fill="#000000" font-family="sans-serif" font-size="14" lengthAdjust="spacing" textLength="84.6016" x="302.57" y="107.1826">Role : string</text><text fill="#000000" font-family="sans-serif" font-size="14" lengthAdjust="spacing" textLength="195.3301" x="302.57" y="123.4795">RegistrationDate : datetime</text></g><!--class SubscriptionPlans--><g class="entity" data-qualified-name="SubscriptionPlans" data-source-line="14" id="ent0003"><rect fill="#F1F1F1" height="91.1875" rx="2.5" ry="2.5" style="stroke:#181818;stroke-width:0.5;" width="130.0654" x="27.21" y="23.3"/><text fill="#000000" font-family="sans-serif" font-size="14" lengthAdjust="spacing" textLength="124.0654" x="30.21" y="41.2951">SubscriptionPlans</text><line style="stroke:#181818;stroke-width:0.5;" x1="28.21" x2="156.2754" y1="49.5969" y2="49.5969"/><g data-visibility-modifier="IE_MANDATORY"><ellipse cx="38.21" cy="63.2453" fill="#000000" rx="3" ry="3" style="stroke:#000000;stroke-width:1;"/></g><text fill="#000000" font-family="sans-serif" font-size="14" lengthAdjust="spacing" textLength="84.0889" x="47.21" y="66.592">Id : int &#171;PK&#187;</text><line style="stroke:#181818;stroke-width:1;" x1="28.21" x2="156.2754" y1="73.8938" y2="73.8938"/><text fill="#000000" font-family="sans-serif" font-size="14" lengthAdjust="spacing" textLength="95.1084" x="33.21" y="90.8889">Name : string</text><text fill="#000000" font-family="sans-serif" font-size="14" lengthAdjust="spacing" textLength="103.209" x="33.21" y="107.1857">Price : decimal</text></g><!--class UserSubscriptions--><g class="entity" data-qualified-name="UserSubscriptions" data-source-line="21" id="ent0004"><rect fill="#F1F1F1" height="140.0781" rx="2.5" ry="2.5" style="stroke:#181818;stroke-width:0.5;" width="170.4775" x="7" y="190.78"/><text fill="#000000" font-family="sans-serif" font-size="14" lengthAdjust="spacing" textLength="126.1914" x="29.1431" y="208.7751">UserSubscriptions</text><line style="stroke:#181818;stroke-width:0.5;" x1="8" x2="176.4775" y1="217.0769" y2="217.0769"/><g data-visibility-modifier="IE_MANDATORY"><ellipse cx="18" cy="230.7253" fill="#000000" rx="3" ry="3" style="stroke:#000000;stroke-width:1;"/></g><text fill="#000000" font-family="sans-serif" font-size="14" lengthAdjust="spacing" textLength="84.0889" x="27" y="234.072">Id : int &#171;PK&#187;</text><line style="stroke:#181818;stroke-width:1;" x1="8" x2="176.4775" y1="241.3738" y2="241.3738"/><g data-visibility-modifier="IE_MANDATORY"><ellipse cx="18" cy="255.0222" fill="#000000" rx="3" ry="3" style="stroke:#000000;stroke-width:1;"/></g><text fill="#000000" font-family="sans-serif" font-size="14" lengthAdjust="spacing" textLength="115.6094" x="27" y="258.3689">UserId : int &#171;FK&#187;</text><g data-visibility-modifier="IE_MANDATORY"><ellipse cx="18" cy="271.3191" fill="#000000" rx="3" ry="3" style="stroke:#000000;stroke-width:1;"/></g><text fill="#000000" font-family="sans-serif" font-size="14" lengthAdjust="spacing" textLength="113.4834" x="27" y="274.6657">PlanId : int &#171;FK&#187;</text><text fill="#000000" font-family="sans-serif" font-size="14" lengthAdjust="spacing" textLength="144.4775" x="27" y="290.9626">StartDate : datetime</text><text fill="#000000" font-family="sans-serif" font-size="14" lengthAdjust="spacing" textLength="136.8828" x="27" y="307.2595">EndDate : datetime</text><text fill="#000000" font-family="sans-serif" font-size="14" lengthAdjust="spacing" textLength="124.5645" x="27" y="323.5564">IsActive : boolean</text></g><!--class Movies--><g class="entity" data-qualified-name="Movies" data-source-line="31" id="ent0005"><rect fill="#F1F1F1" height="123.7813" rx="2.5" ry="2.5" style="stroke:#181818;stroke-width:0.5;" width="160.6611" x="636.91" y="7"/><text fill="#000000" font-family="sans-serif" font-size="14" lengthAdjust="spacing" textLength="48.7266" x="692.8773" y="24.9951">Movies</text><line style="stroke:#181818;stroke-width:0.5;" x1="637.91" x2="796.5711" y1="33.2969" y2="33.2969"/><g data-visibility-modifier="IE_MANDATORY"><ellipse cx="647.91" cy="46.9453" fill="#000000" rx="3" ry="3" style="stroke:#000000;stroke-width:1;"/></g><text fill="#000000" font-family="sans-serif" font-size="14" lengthAdjust="spacing" textLength="84.0889" x="656.91" y="50.292">Id : int &#171;PK&#187;</text><line style="stroke:#181818;stroke-width:1;" x1="637.91" x2="796.5711" y1="57.5938" y2="57.5938"/><text fill="#000000" font-family="sans-serif" font-size="14" lengthAdjust="spacing" textLength="84.2393" x="642.91" y="74.5889">Title : string</text><text fill="#000000" font-family="sans-serif" font-size="14" lengthAdjust="spacing" textLength="121.2285" x="642.91" y="90.8857">Description : text</text><text fill="#000000" font-family="sans-serif" font-size="14" lengthAdjust="spacing" textLength="118.6992" x="642.91" y="107.1826">ReleaseYear : int</text><text fill="#000000" font-family="sans-serif" font-size="14" lengthAdjust="spacing" textLength="148.6611" x="642.91" y="123.4795">IsPublished : boolean</text></g><!--class Actors--><g class="entity" data-qualified-name="Actors" data-source-line="40" id="ent0006"><rect fill="#F1F1F1" height="107.4844" rx="2.5" ry="2.5" style="stroke:#181818;stroke-width:0.5;" width="137.5898" x="840.44" y="15.15"/><text fill="#000000" font-family="sans-serif" font-size="14" lengthAdjust="spacing" textLength="44.3789" x="887.0455" y="33.1451">Actors</text><line style="stroke:#181818;stroke-width:0.5;" x1="841.44" x2="977.0298" y1="41.4469" y2="41.4469"/><g data-visibility-modifier="IE_MANDATORY"><ellipse cx="851.44" cy="55.0953" fill="#000000" rx="3" ry="3" style="stroke:#000000;stroke-width:1;"/></g><text fill="#000000" font-family="sans-serif" font-size="14" lengthAdjust="spacing" textLength="84.0889" x="860.44" y="58.442">Id : int &#171;PK&#187;</text><line style="stroke:#181818;stroke-width:1;" x1="841.44" x2="977.0298" y1="65.7438" y2="65.7438"/><text fill="#000000" font-family="sans-serif" font-size="14" lengthAdjust="spacing" textLength="125.5898" x="846.44" y="82.7389">FirstName : string</text><text fill="#000000" font-family="sans-serif" font-size="14" lengthAdjust="spacing" textLength="124.2705" x="846.44" y="99.0357">LastName : string</text><text fill="#000000" font-family="sans-serif" font-size="14" lengthAdjust="spacing" textLength="112.2598" x="846.44" y="115.3326">BirthDate : date</text></g><!--class MovieActors--><g class="entity" data-qualified-name="MovieActors" data-source-line="48" id="ent0007"><rect fill="#F1F1F1" height="74.8906" rx="2.5" ry="2.5" style="stroke:#181818;stroke-width:0.5;" width="151.1318" x="833.67" y="223.38"/><text fill="#000000" font-family="sans-serif" font-size="14" lengthAdjust="spacing" textLength="85.8115" x="866.3302" y="241.3751">MovieActors</text><line style="stroke:#181818;stroke-width:0.5;" x1="834.67" x2="983.8018" y1="249.6769" y2="249.6769"/><g data-visibility-modifier="IE_MANDATORY"><ellipse cx="844.67" cy="263.3253" fill="#000000" rx="3" ry="3" style="stroke:#000000;stroke-width:1;"/></g><text fill="#000000" font-family="sans-serif" font-size="14" lengthAdjust="spacing" textLength="125.1318" x="853.67" y="266.672">MovieId : int &#171;FK&#187;</text><g data-visibility-modifier="IE_MANDATORY"><ellipse cx="844.67" cy="279.6222" fill="#000000" rx="3" ry="3" style="stroke:#000000;stroke-width:1;"/></g><text fill="#000000" font-family="sans-serif" font-size="14" lengthAdjust="spacing" textLength="120.7842" x="853.67" y="282.9689">ActorId : int &#171;FK&#187;</text><line style="stroke:#181818;stroke-width:0.5;" x1="834.67" x2="983.8018" y1="290.2706" y2="290.2706"/></g><!--class Genres--><g class="entity" data-qualified-name="Genres" data-source-line="53" id="ent0008"><rect fill="#F1F1F1" height="74.8906" rx="2.5" ry="2.5" style="stroke:#181818;stroke-width:0.5;" width="110.0889" x="1041.19" y="31.45"/><text fill="#000000" font-family="sans-serif" font-size="14" lengthAdjust="spacing" textLength="49.998" x="1071.2354" y="49.4451">Genres</text><line style="stroke:#181818;stroke-width:0.5;" x1="1042.19" x2="1150.2789" y1="57.7469" y2="57.7469"/><g data-visibility-modifier="IE_MANDATORY"><ellipse cx="1052.19" cy="71.3953" fill="#000000" rx="3" ry="3" style="stroke:#000000;stroke-width:1;"/></g><text fill="#000000" font-family="sans-serif" font-size="14" lengthAdjust="spacing" textLength="84.0889" x="1061.19" y="74.742">Id : int &#171;PK&#187;</text><line style="stroke:#181818;stroke-width:1;" x1="1042.19" x2="1150.2789" y1="82.0437" y2="82.0437"/><text fill="#000000" font-family="sans-serif" font-size="14" lengthAdjust="spacing" textLength="95.1084" x="1047.19" y="99.0389">Name : string</text></g><!--class MovieGenres--><g class="entity" data-qualified-name="MovieGenres" data-source-line="59" id="ent0009"><rect fill="#F1F1F1" height="74.8906" rx="2.5" ry="2.5" style="stroke:#181818;stroke-width:0.5;" width="152.4033" x="1020.04" y="223.38"/><text fill="#000000" font-family="sans-serif" font-size="14" lengthAdjust="spacing" textLength="91.4307" x="1050.5263" y="241.3751">MovieGenres</text><line style="stroke:#181818;stroke-width:0.5;" x1="1021.04" x2="1171.4433" y1="249.6769" y2="249.6769"/><g data-visibility-modifier="IE_MANDATORY"><ellipse cx="1031.04" cy="263.3253" fill="#000000" rx="3" ry="3" style="stroke:#000000;stroke-width:1;"/></g><text fill="#000000" font-family="sans-serif" font-size="14" lengthAdjust="spacing" textLength="125.1318" x="1040.04" y="266.672">MovieId : int &#171;FK&#187;</text><g data-visibility-modifier="IE_MANDATORY"><ellipse cx="1031.04" cy="279.6222" fill="#000000" rx="3" ry="3" style="stroke:#000000;stroke-width:1;"/></g><text fill="#000000" font-family="sans-serif" font-size="14" lengthAdjust="spacing" textLength="126.4033" x="1040.04" y="282.9689">GenreId : int &#171;FK&#187;</text><line style="stroke:#181818;stroke-width:0.5;" x1="1021.04" x2="1171.4433" y1="290.2706" y2="290.2706"/></g><!--class WatchHistory--><g class="entity" data-qualified-name="WatchHistory" data-source-line="64" id="ent0010"><rect fill="#F1F1F1" height="107.4844" rx="2.5" ry="2.5" style="stroke:#181818;stroke-width:0.5;" width="179.8633" x="212.31" y="207.08"/><text fill="#000000" font-family="sans-serif" font-size="14" lengthAdjust="spacing" textLength="94.2881" x="255.0976" y="225.0751">WatchHistory</text><line style="stroke:#181818;stroke-width:0.5;" x1="213.31" x2="391.1733" y1="233.3769" y2="233.3769"/><g data-visibility-modifier="IE_MANDATORY"><ellipse cx="223.31" cy="247.0253" fill="#000000" rx="3" ry="3" style="stroke:#000000;stroke-width:1;"/></g><text fill="#000000" font-family="sans-serif" font-size="14" lengthAdjust="spacing" textLength="84.0889" x="232.31" y="250.372">Id : int &#171;PK&#187;</text><line style="stroke:#181818;stroke-width:1;" x1="213.31" x2="391.1733" y1="257.6738" y2="257.6738"/><g data-visibility-modifier="IE_MANDATORY"><ellipse cx="223.31" cy="271.3222" fill="#000000" rx="3" ry="3" style="stroke:#000000;stroke-width:1;"/></g><text fill="#000000" font-family="sans-serif" font-size="14" lengthAdjust="spacing" textLength="115.6094" x="232.31" y="274.6689">UserId : int &#171;FK&#187;</text><g data-visibility-modifier="IE_MANDATORY"><ellipse cx="223.31" cy="287.6191" fill="#000000" rx="3" ry="3" style="stroke:#000000;stroke-width:1;"/></g><text fill="#000000" font-family="sans-serif" font-size="14" lengthAdjust="spacing" textLength="125.1318" x="232.31" y="290.9657">MovieId : int &#171;FK&#187;</text><text fill="#000000" font-family="sans-serif" font-size="14" lengthAdjust="spacing" textLength="153.8633" x="232.31" y="307.2626">WatchedAt : datetime</text></g><!--class Reviews--><g class="entity" data-qualified-name="Reviews" data-source-line="72" id="ent0011"><rect fill="#F1F1F1" height="140.0781" rx="2.5" ry="2.5" style="stroke:#181818;stroke-width:0.5;" width="173.5947" x="427.44" y="190.78"/><text fill="#000000" font-family="sans-serif" font-size="14" lengthAdjust="spacing" textLength="57.873" x="485.3008" y="208.7751">Reviews</text><line style="stroke:#181818;stroke-width:0.5;" x1="428.44" x2="600.0347" y1="217.0769" y2="217.0769"/><g data-visibility-modifier="IE_MANDATORY"><ellipse cx="438.44" cy="230.7253" fill="#000000" rx="3" ry="3" style="stroke:#000000;stroke-width:1;"/></g><text fill="#000000" font-family="sans-serif" font-size="14" lengthAdjust="spacing" textLength="84.0889" x="447.44" y="234.072">Id : int &#171;PK&#187;</text><line style="stroke:#181818;stroke-width:1;" x1="428.44" x2="600.0347" y1="241.3738" y2="241.3738"/><g data-visibility-modifier="IE_MANDATORY"><ellipse cx="438.44" cy="255.0222" fill="#000000" rx="3" ry="3" style="stroke:#000000;stroke-width:1;"/></g><text fill="#000000" font-family="sans-serif" font-size="14" lengthAdjust="spacing" textLength="115.6094" x="447.44" y="258.3689">UserId : int &#171;FK&#187;</text><g data-visibility-modifier="IE_MANDATORY"><ellipse cx="438.44" cy="271.3191" fill="#000000" rx="3" ry="3" style="stroke:#000000;stroke-width:1;"/></g><text fill="#000000" font-family="sans-serif" font-size="14" lengthAdjust="spacing" textLength="125.1318" x="447.44" y="274.6657">MovieId : int &#171;FK&#187;</text><text fill="#000000" font-family="sans-serif" font-size="14" lengthAdjust="spacing" textLength="124.4619" x="447.44" y="290.9626">Rating : int (1-10)</text><text fill="#000000" font-family="sans-serif" font-size="14" lengthAdjust="spacing" textLength="110.0859" x="447.44" y="307.2595">Comment : text</text><text fill="#000000" font-family="sans-serif" font-size="14" lengthAdjust="spacing" textLength="147.5947" x="447.44" y="323.5564">CreatedAt : datetime</text></g><!--class Favorites--><g class="entity" data-qualified-name="Favorites" data-source-line="82" id="ent0012"><rect fill="#F1F1F1" height="107.4844" rx="2.5" ry="2.5" style="stroke:#181818;stroke-width:0.5;" width="162.7324" x="635.87" y="207.08"/><text fill="#000000" font-family="sans-serif" font-size="14" lengthAdjust="spacing" textLength="64.5244" x="684.974" y="225.0751">Favorites</text><line style="stroke:#181818;stroke-width:0.5;" x1="636.87" x2="797.6024" y1="233.3769" y2="233.3769"/><g data-visibility-modifier="IE_MANDATORY"><ellipse cx="646.87" cy="247.0253" fill="#000000" rx="3" ry="3" style="stroke:#000000;stroke-width:1;"/></g><text fill="#000000" font-family="sans-serif" font-size="14" lengthAdjust="spacing" textLength="84.0889" x="655.87" y="250.372">Id : int &#171;PK&#187;</text><line style="stroke:#181818;stroke-width:1;" x1="636.87" x2="797.6024" y1="257.6738" y2="257.6738"/><g data-visibility-modifier="IE_MANDATORY"><ellipse cx="646.87" cy="271.3222" fill="#000000" rx="3" ry="3" style="stroke:#000000;stroke-width:1;"/></g><text fill="#000000" font-family="sans-serif" font-size="14" lengthAdjust="spacing" textLength="115.6094" x="655.87" y="274.6689">UserId : int &#171;FK&#187;</text><g data-visibility-modifier="IE_MANDATORY"><ellipse cx="646.87" cy="287.6191" fill="#000000" rx="3" ry="3" style="stroke:#000000;stroke-width:1;"/></g><text fill="#000000" font-family="sans-serif" font-size="14" lengthAdjust="spacing" textLength="125.1318" x="655.87" y="290.9657">MovieId : int &#171;FK&#187;</text><text fill="#000000" font-family="sans-serif" font-size="14" lengthAdjust="spacing" textLength="136.7324" x="655.87" y="307.2626">AddedAt : datetime</text></g><!--link Users to UserSubscriptions--><g class="link" data-entity-1="ent0002" data-entity-2="ent0004" data-link-type="crowfoot" data-source-line="91" id="lnk13"><path codeLine="91" d="M288.41,122.86 C226.31,122.86 167.37,122.86 167.37,122.86 C167.37,122.86 167.37,138.55 167.37,172.63" fill="none" id="Users-UserSubscriptions" style="stroke:#181818;stroke-width:1;"/><line style="stroke:#181818;stroke-width:1;" x1="292.41" x2="292.41" y1="118.86" y2="126.86"/><line style="stroke:#181818;stroke-width:1;" x1="289.41" x2="289.41" y1="118.86" y2="126.86"/><line style="stroke:#181818;stroke-width:1;" x1="288.41" x2="296.41" y1="122.86" y2="122.86"/><line style="stroke:#181818;stroke-width:1;" x1="167.37" x2="173.37" y1="182.63" y2="190.63"/><line style="stroke:#181818;stroke-width:1;" x1="167.37" x2="161.37" y1="182.63" y2="190.63"/><line style="stroke:#181818;stroke-width:1;" x1="167.37" x2="167.37" y1="182.63" y2="190.63"/><ellipse cx="167.37" cy="176.63" fill="none" rx="4" ry="4" style="stroke:#181818;stroke-width:1;"/></g><!--link SubscriptionPlans to UserSubscriptions--><g class="link" data-entity-1="ent0003" data-entity-2="ent0004" data-link-type="crowfoot" data-source-line="92" id="lnk14"><path codeLine="92" d="M92.24,122.86 C92.24,145.49 92.24,147.25 92.24,172.47" fill="none" id="SubscriptionPlans-UserSubscriptions" style="stroke:#181818;stroke-width:1;"/><line style="stroke:#181818;stroke-width:1;" x1="88.24" x2="96.24" y1="118.86" y2="118.86"/><line style="stroke:#181818;stroke-width:1;" x1="88.24" x2="96.24" y1="121.86" y2="121.86"/><line style="stroke:#181818;stroke-width:1;" x1="92.24" x2="92.24" y1="122.86" y2="114.86"/><line style="stroke:#181818;stroke-width:1;" x1="92.24" x2="98.24" y1="182.47" y2="190.47"/><line style="stroke:#181818;stroke-width:1;" x1="92.24" x2="86.24" y1="182.47" y2="190.47"/><line style="stroke:#181818;stroke-width:1;" x1="92.24" x2="92.24" y1="182.47" y2="190.47"/><ellipse cx="92.24" cy="176.47" fill="none" rx="4" ry="4" style="stroke:#181818;stroke-width:1;"/></g><!--link Users to WatchHistory--><g class="link" data-entity-1="ent0002" data-entity-2="ent0010" data-link-type="crowfoot" data-source-line="94" id="lnk15"><path codeLine="94" d="M328.44,139.21 C328.44,163.61 328.44,165.35 328.44,188.88" fill="none" id="Users-WatchHistory" style="stroke:#181818;stroke-width:1;"/><line style="stroke:#181818;stroke-width:1;" x1="324.44" x2="332.44" y1="135.21" y2="135.21"/><line style="stroke:#181818;stroke-width:1;" x1="324.44" x2="332.44" y1="138.21" y2="138.21"/><line style="stroke:#181818;stroke-width:1;" x1="328.44" x2="328.44" y1="139.21" y2="131.21"/><line style="stroke:#181818;stroke-width:1;" x1="328.44" x2="334.44" y1="198.88" y2="206.88"/><line style="stroke:#181818;stroke-width:1;" x1="328.44" x2="322.44" y1="198.88" y2="206.88"/><line style="stroke:#181818;stroke-width:1;" x1="328.44" x2="328.44" y1="198.88" y2="206.88"/><ellipse cx="328.44" cy="192.88" fill="none" rx="4" ry="4" style="stroke:#181818;stroke-width:1;"/></g><!--link Movies to WatchHistory--><g class="link" data-entity-1="ent0005" data-entity-2="ent0010" data-link-type="crowfoot" data-source-line="95" id="lnk16"><path codeLine="95" d="M677.07,139.25 C677.07,155.66 677.07,160.86 677.07,160.86 C677.07,160.86 360.3,160.86 360.3,160.86 C360.3,160.86 360.3,165.19 360.3,188.74" fill="none" id="Movies-WatchHistory" style="stroke:#181818;stroke-width:1;"/><line style="stroke:#181818;stroke-width:1;" x1="673.07" x2="681.07" y1="135.25" y2="135.25"/><line style="stroke:#181818;stroke-width:1;" x1="673.07" x2="681.07" y1="138.25" y2="138.25"/><line style="stroke:#181818;stroke-width:1;" x1="677.07" x2="677.07" y1="139.25" y2="131.25"/><line style="stroke:#181818;stroke-width:1;" x1="360.3" x2="366.3" y1="198.74" y2="206.74"/><line style="stroke:#181818;stroke-width:1;" x1="360.3" x2="354.3" y1="198.74" y2="206.74"/><line style="stroke:#181818;stroke-width:1;" x1="360.3" x2="360.3" y1="198.74" y2="206.74"/><ellipse cx="360.3" cy="192.74" fill="none" rx="4" ry="4" style="stroke:#181818;stroke-width:1;"/></g><!--link Users to Reviews--><g class="link" data-entity-1="ent0002" data-entity-2="ent0011" data-link-type="crowfoot" data-source-line="97" id="lnk17"><path codeLine="97" d="M465.67,139.21 C465.67,158.14 465.67,153.08 465.67,172.5" fill="none" id="Users-Reviews" style="stroke:#181818;stroke-width:1;"/><line style="stroke:#181818;stroke-width:1;" x1="461.67" x2="469.67" y1="135.21" y2="135.21"/><line style="stroke:#181818;stroke-width:1;" x1="461.67" x2="469.67" y1="138.21" y2="138.21"/><line style="stroke:#181818;stroke-width:1;" x1="465.67" x2="465.67" y1="139.21" y2="131.21"/><line style="stroke:#181818;stroke-width:1;" x1="465.67" x2="471.67" y1="182.5" y2="190.5"/><line style="stroke:#181818;stroke-width:1;" x1="465.67" x2="459.67" y1="182.5" y2="190.5"/><line style="stroke:#181818;stroke-width:1;" x1="465.67" x2="465.67" y1="182.5" y2="190.5"/><ellipse cx="465.67" cy="176.5" fill="none" rx="4" ry="4" style="stroke:#181818;stroke-width:1;"/></g><!--link Movies to Reviews--><g class="link" data-entity-1="ent0005" data-entity-2="ent0011" data-link-type="crowfoot" data-source-line="98" id="lnk18"><path codeLine="98" d="M717.24,138.92 C717.24,172.78 717.24,199.86 717.24,199.86 C717.24,199.86 674.53,199.86 619.51,199.86" fill="none" id="Movies-Reviews" style="stroke:#181818;stroke-width:1;"/><line style="stroke:#181818;stroke-width:1;" x1="713.24" x2="721.24" y1="134.92" y2="134.92"/><line style="stroke:#181818;stroke-width:1;" x1="713.24" x2="721.24" y1="137.92" y2="137.92"/><line style="stroke:#181818;stroke-width:1;" x1="717.24" x2="717.24" y1="138.92" y2="130.92"/><line style="stroke:#181818;stroke-width:1;" x1="609.51" x2="601.51" y1="199.86" y2="205.86"/><line style="stroke:#181818;stroke-width:1;" x1="609.51" x2="601.51" y1="199.86" y2="193.86"/><line style="stroke:#181818;stroke-width:1;" x1="609.51" x2="601.51" y1="199.86" y2="199.86"/><ellipse cx="615.51" cy="199.86" fill="none" rx="4" ry="4" style="stroke:#181818;stroke-width:1;"/></g><!--link Users to Favorites--><g class="link" data-entity-1="ent0002" data-entity-2="ent0012" data-link-type="crowfoot" data-source-line="100" id="lnk19"><path codeLine="100" d="M512.23,69.86 C568.44,69.86 618.45,69.86 618.45,69.86 C618.45,69.86 618.45,260.86 618.45,260.86 C618.45,260.86 607.42,260.86 617.66,260.86" fill="none" id="Users-Favorites" style="stroke:#181818;stroke-width:1;"/><line style="stroke:#181818;stroke-width:1;" x1="508.23" x2="508.23" y1="73.86" y2="65.86"/><line style="stroke:#181818;stroke-width:1;" x1="511.23" x2="511.23" y1="73.86" y2="65.86"/><line style="stroke:#181818;stroke-width:1;" x1="512.23" x2="504.23" y1="69.86" y2="69.86"/><line style="stroke:#181818;stroke-width:1;" x1="627.66" x2="635.66" y1="260.86" y2="254.86"/><line style="stroke:#181818;stroke-width:1;" x1="627.66" x2="635.66" y1="260.86" y2="266.86"/><line style="stroke:#181818;stroke-width:1;" x1="627.66" x2="635.66" y1="260.86" y2="260.86"/><ellipse cx="621.66" cy="260.86" fill="none" rx="4" ry="4" style="stroke:#181818;stroke-width:1;"/></g><!--link Movies to Favorites--><g class="link" data-entity-1="ent0005" data-entity-2="ent0012" data-link-type="crowfoot" data-source-line="101" id="lnk20"><path codeLine="101" d="M757.4,139.21 C757.4,163.61 757.4,165.35 757.4,188.88" fill="none" id="Movies-Favorites" style="stroke:#181818;stroke-width:1;"/><line style="stroke:#181818;stroke-width:1;" x1="753.4" x2="761.4" y1="135.21" y2="135.21"/><line style="stroke:#181818;stroke-width:1;" x1="753.4" x2="761.4" y1="138.21" y2="138.21"/><line style="stroke:#181818;stroke-width:1;" x1="757.4" x2="757.4" y1="139.21" y2="131.21"/><line style="stroke:#181818;stroke-width:1;" x1="757.4" x2="763.4" y1="198.88" y2="206.88"/><line style="stroke:#181818;stroke-width:1;" x1="757.4" x2="751.4" y1="198.88" y2="206.88"/><line style="stroke:#181818;stroke-width:1;" x1="757.4" x2="757.4" y1="198.88" y2="206.88"/><ellipse cx="757.4" cy="192.88" fill="none" rx="4" ry="4" style="stroke:#181818;stroke-width:1;"/></g><!--link Movies to MovieGenres--><g class="link" data-entity-1="ent0005" data-entity-2="ent0009" data-link-type="crowfoot" data-source-line="103" id="lnk21"><path codeLine="103" d="M805.94,125.86 C898.79,125.86 1030.62,125.86 1030.62,125.86 C1030.62,125.86 1030.62,175.29 1030.62,215.23" fill="none" id="Movies-MovieGenres" style="stroke:#181818;stroke-width:1;"/><line style="stroke:#181818;stroke-width:1;" x1="801.94" x2="801.94" y1="129.86" y2="121.86"/><line style="stroke:#181818;stroke-width:1;" x1="804.94" x2="804.94" y1="129.86" y2="121.86"/><line style="stroke:#181818;stroke-width:1;" x1="805.94" x2="797.94" y1="125.86" y2="125.86"/><line style="stroke:#181818;stroke-width:1;" x1="1030.62" x2="1036.62" y1="215.23" y2="223.23"/><line style="stroke:#181818;stroke-width:1;" x1="1030.62" x2="1024.62" y1="215.23" y2="223.23"/><line style="stroke:#181818;stroke-width:1;" x1="1030.62" x2="1030.62" y1="215.23" y2="223.23"/><line style="stroke:#181818;stroke-width:1;" x1="1034.62" x2="1026.62" y1="213.23" y2="213.23"/></g><!--link Genres to MovieGenres--><g class="link" data-entity-1="ent0008" data-entity-2="ent0009" data-link-type="crowfoot" data-source-line="104" id="lnk22"><path codeLine="104" d="M1096.24,114.81 C1096.24,148.46 1096.24,181.36 1096.24,214.98" fill="none" id="Genres-MovieGenres" style="stroke:#181818;stroke-width:1;"/><line style="stroke:#181818;stroke-width:1;" x1="1092.24" x2="1100.24" y1="110.81" y2="110.81"/><line style="stroke:#181818;stroke-width:1;" x1="1092.24" x2="1100.24" y1="113.81" y2="113.81"/><line style="stroke:#181818;stroke-width:1;" x1="1096.24" x2="1096.24" y1="114.81" y2="106.81"/><line style="stroke:#181818;stroke-width:1;" x1="1096.24" x2="1102.24" y1="214.98" y2="222.98"/><line style="stroke:#181818;stroke-width:1;" x1="1096.24" x2="1090.24" y1="214.98" y2="222.98"/><line style="stroke:#181818;stroke-width:1;" x1="1096.24" x2="1096.24" y1="214.98" y2="222.98"/><line style="stroke:#181818;stroke-width:1;" x1="1100.24" x2="1092.24" y1="212.98" y2="212.98"/></g><!--link Movies to MovieActors--><g class="link" data-entity-1="ent0005" data-entity-2="ent0007" data-link-type="crowfoot" data-source-line="106" id="lnk23"><path codeLine="106" d="M805.81,128.86 C849.36,128.86 886.31,128.86 886.31,128.86 C886.31,128.86 886.31,176.01 886.31,215.01" fill="none" id="Movies-MovieActors" style="stroke:#181818;stroke-width:1;"/><line style="stroke:#181818;stroke-width:1;" x1="801.81" x2="801.81" y1="132.86" y2="124.86"/><line style="stroke:#181818;stroke-width:1;" x1="804.81" x2="804.81" y1="132.86" y2="124.86"/><line style="stroke:#181818;stroke-width:1;" x1="805.81" x2="797.81" y1="128.86" y2="128.86"/><line style="stroke:#181818;stroke-width:1;" x1="886.31" x2="892.31" y1="215.01" y2="223.01"/><line style="stroke:#181818;stroke-width:1;" x1="886.31" x2="880.31" y1="215.01" y2="223.01"/><line style="stroke:#181818;stroke-width:1;" x1="886.31" x2="886.31" y1="215.01" y2="223.01"/><line style="stroke:#181818;stroke-width:1;" x1="890.31" x2="882.31" y1="213.01" y2="213.01"/></g><!--link Actors to MovieActors--><g class="link" data-entity-1="ent0006" data-entity-2="ent0007" data-link-type="crowfoot" data-source-line="107" id="lnk24"><path codeLine="107" d="M932.17,131.12 C932.17,163.05 932.17,186.62 932.17,215.15" fill="none" id="Actors-MovieActors" style="stroke:#181818;stroke-width:1;"/><line style="stroke:#181818;stroke-width:1;" x1="928.17" x2="936.17" y1="127.12" y2="127.12"/><line style="stroke:#181818;stroke-width:1;" x1="928.17" x2="936.17" y1="130.12" y2="130.12"/><line style="stroke:#181818;stroke-width:1;" x1="932.17" x2="932.17" y1="131.12" y2="123.12"/><line style="stroke:#181818;stroke-width:1;" x1="932.17" x2="938.17" y1="215.15" y2="223.15"/><line style="stroke:#181818;stroke-width:1;" x1="932.17" x2="926.17" y1="215.15" y2="223.15"/><line style="stroke:#181818;stroke-width:1;" x1="932.17" x2="932.17" y1="215.15" y2="223.15"/><line style="stroke:#181818;stroke-width:1;" x1="936.17" x2="928.17" y1="213.15" y2="213.15"/></g><?plantuml-src hLHDQnH14BtthoXooGSicAk4m9faDVZ1ib74O-zCiLiuqxrqTrQNNI4eU19oaVm4pnjH3CReN-ZvHzRCnEnyhOkIopJpNjMhrzNLlGx-Kt8A_hl_wN_ukR_oN_mS_A_an5_uSt_1wppv2FuoEKlU-g_9IV8EDWusmPydPmnovXLdVVEVWUavPrnopllaWnXIY12G2I8KzYMfaJGoXeWKkia8GHitr4AWSkGciFRCeh5hC1K0Mt0OmbqWvM1df_jmTvUnLei_QSmJ6IEJrXbI0yOEOabH4UZfg1JGmm7nZtIarRvqAHVouYX6yMPH_-YuRmD3epIi6qcroalLHzTGa6bZGB6CYjAfxQByAkcjRAC5ifEJMv0Qg-D7JXfNtHftHeLryD2s0qVZ5ErhxfHKHQUFzPXmbRsdvCeTtiURhJ7iyBNBsixY5b-WDBbALhnxt8_83Z5ihi_UzCefw92nhjh-HxAEtICUiK8BQZijbykWfgvdOLMYe7KVbS5_cvUgaxB4KYTPs5-SF9Sk63xWSTTcyjz3jgHwferXsosvG3taj5Vsjils-EAgmJMwiTtQlhF9w9wEOowy6BSzW-nfkRkE76j33c_TNpiC6ygkf_EVFJbsI2ChijSDPhDMIq-XzXw8skEpFBGiLJnmaT_UHggSTNrKbOG_Q3dsfd6Lw0LU96PJACopo9ScfYafluuYNngOtm00?></g></svg>